
    <svg width="800" height="240" viewBox="0 0 800 240" fill="none" xmlns="http://www.w3.org/2000/svg">
        
    <style>
        @import url('https://fonts.googleapis.com/css2?family=Fira+Code:wght@400;700&amp;family=Inter:wght@400;600;800&amp;display=swap');
        
        .bg { fill: #0d1117; }
        .panel { fill: #161b22; stroke: #30363d; stroke-width: 1px; rx: 8px; }
        .glow-border { 
            fill: none; 
            stroke: url(#cyan-glow); 
            stroke-width: 1.5px; 
            rx: 8px; 
        }
        text { font-family: 'Inter', sans-serif; fill: #c9d1d9; }
        .text-title { fill: #ffffff; font-weight: 800; }
        .text-subtitle { fill: #8b949e; }
        .text-accent { fill: #58a6ff; font-family: 'Fira Code', monospace; }
        .text-mono { fill: #3fb950; font-family: 'Fira Code', monospace; }
        .text-glow { fill: #00ffcc; font-weight: 800; }
        
        .tag-pill { fill: transparent; stroke: #30363d; stroke-width: 1px; rx: 12px; }
        .tag-text { fill: #c9d1d9; font-weight: 600; }
        
        .progress-bg { fill: #21262d; rx: 4px; }
        .progress-fill { rx: 4px; }
        
        .dot { fill: #30363d; }
        .dot-glow { fill: #00ffcc; filter: drop-shadow(0 0 5px #00ffcc); }
    </style>
    <defs>
        <linearGradient id="cyan-glow" x1="0%" y1="0%" x2="100%" y2="100%">
            <stop offset="0%" stop-color="#00ffcc" stop-opacity="0.8"/>
            <stop offset="50%" stop-color="#00ffcc" stop-opacity="0.1"/>
            <stop offset="100%" stop-color="#00ffcc" stop-opacity="0.8"/>
        </linearGradient>
        <filter id="neon-glow" x="-20%" y="-20%" width="140%" height="140%">
            <feGaussianBlur stdDeviation="4" result="blur" />
            <feComposite in="SourceGraphic" in2="blur" operator="over" />
        </filter>
    </defs>
    
        <rect width="800" height="240" class="bg"/>
        
        <!-- Outer Glowing Box -->
        <rect x="20" y="20" width="760" height="200" class="glow-border"/>
        <rect x="21" y="21" width="758" height="198" class="panel"/>
        
        <!-- Header -->
        <text x="40" y="60" class="text-title" font-size="24">Contribution Activity</text>
        <text x="40" y="80" class="text-subtitle" font-size="12">0 contributions in the last year</text>
        
        <g transform="translate(620, 60)">
            <text x="0" y="10" class="text-subtitle" font-size="10">Less</text>
            <rect x="30" y="0" width="10" height="10" fill="#161b22" rx="2"/>
            <rect x="44" y="0" width="10" height="10" fill="#21262d" rx="2"/>
            <rect x="58" y="0" width="10" height="10" fill="#58a6ff" rx="2"/>
            <rect x="72" y="0" width="10" height="10" fill="#00ffcc" rx="2"/>
            <text x="90" y="10" class="text-subtitle" font-size="10">More</text>
        </g>
        
        <rect x="40" y="100" width="10" height="10" fill="#161b22" stroke="#30363d" stroke-width="1" rx="2" />
<rect x="40" y="114" width="10" height="10" fill="#161b22" stroke="#30363d" stroke-width="1" rx="2" />
<rect x="40" y="128" width="10" height="10" fill="#161b22" stroke="#30363d" stroke-width="1" rx="2" />
<rect x="40" y="142" width="10" height="10" fill="#58a6ff" stroke="#30363d" stroke-width="1" rx="2" />
<rect x="40" y="156" width="10" height="10" fill="#58a6ff" stroke="#30363d" stroke-width="1" rx="2" />
<rect x="40" y="170" width="10" height="10" fill="#21262d" stroke="#30363d" stroke-width="1" rx="2" />
<rect x="40" y="184" width="10" height="10" fill="#58a6ff" stroke="#30363d" stroke-width="1" rx="2" />
<rect x="54" y="100" width="10" height="10" fill="#58a6ff" stroke="#30363d" stroke-width="1" rx="2" />
<rect x="54" y="114" width="10" height="10" fill="#21262d" stroke="#30363d" stroke-width="1" rx="2" />
<rect x="54" y="128" width="10" height="10" fill="#161b22" stroke="#30363d" stroke-width="1" rx="2" />
<rect x="54" y="142" width="10" height="10" fill="#58a6ff" stroke="#30363d" stroke-width="1" rx="2" />
<rect x="54" y="156" width="10" height="10" fill="#161b22" stroke="#30363d" stroke-width="1" rx="2" />
<rect x="54" y="170" width="10" height="10" fill="#161b22" stroke="#30363d" stroke-width="1" rx="2" />
<rect x="54" y="184" width="10" height="10" fill="#161b22" stroke="#30363d" stroke-width="1" rx="2" />
<rect x="68" y="100" width="10" height="10" fill="#21262d" stroke="#30363d" stroke-width="1" rx="2" />
<rect x="68" y="114" width="10" height="10" fill="#161b22" stroke="#30363d" stroke-width="1" rx="2" />
<rect x="68" y="128" width="10" height="10" fill="#58a6ff" stroke="#30363d" stroke-width="1" rx="2" />
<rect x="68" y="142" width="10" height="10" fill="#161b22" stroke="#30363d" stroke-width="1" rx="2" />
<rect x="68" y="156" width="10" height="10" fill="#161b22" stroke="#30363d" stroke-width="1" rx="2" />
<rect x="68" y="170" width="10" height="10" fill="#21262d" stroke="#30363d" stroke-width="1" rx="2" />
<rect x="68" y="184" width="10" height="10" fill="#161b22" stroke="#30363d" stroke-width="1" rx="2" />
<rect x="82" y="100" width="10" height="10" fill="#161b22" stroke="#30363d" stroke-width="1" rx="2" />
<rect x="82" y="114" width="10" height="10" fill="#161b22" stroke="#30363d" stroke-width="1" rx="2" />
<rect x="82" y="128" width="10" height="10" fill="#00ffcc" stroke="#30363d" stroke-width="1" rx="2" filter="url(#neon-glow)"/>
<rect x="82" y="142" width="10" height="10" fill="#161b22" stroke="#30363d" stroke-width="1" rx="2" />
<rect x="82" y="156" width="10" height="10" fill="#21262d" stroke="#30363d" stroke-width="1" rx="2" />
<rect x="82" y="170" width="10" height="10" fill="#161b22" stroke="#30363d" stroke-width="1" rx="2" />
<rect x="82" y="184" width="10" height="10" fill="#21262d" stroke="#30363d" stroke-width="1" rx="2" />
<rect x="96" y="100" width="10" height="10" fill="#161b22" stroke="#30363d" stroke-width="1" rx="2" />
<rect x="96" y="114" width="10" height="10" fill="#161b22" stroke="#30363d" stroke-width="1" rx="2" />
<rect x="96" y="128" width="10" height="10" fill="#161b22" stroke="#30363d" stroke-width="1" rx="2" />
<rect x="96" y="142" width="10" height="10" fill="#58a6ff" stroke="#30363d" stroke-width="1" rx="2" />
<rect x="96" y="156" width="10" height="10" fill="#161b22" stroke="#30363d" stroke-width="1" rx="2" />
<rect x="96" y="170" width="10" height="10" fill="#161b22" stroke="#30363d" stroke-width="1" rx="2" />
<rect x="96" y="184" width="10" height="10" fill="#21262d" stroke="#30363d" stroke-width="1" rx="2" />
<rect x="110" y="100" width="10" height="10" fill="#161b22" stroke="#30363d" stroke-width="1" rx="2" />
<rect x="110" y="114" width="10" height="10" fill="#161b22" stroke="#30363d" stroke-width="1" rx="2" />
<rect x="110" y="128" width="10" height="10" fill="#161b22" stroke="#30363d" stroke-width="1" rx="2" />
<rect x="110" y="142" width="10" height="10" fill="#161b22" stroke="#30363d" stroke-width="1" rx="2" />
<rect x="110" y="156" width="10" height="10" fill="#161b22" stroke="#30363d" stroke-width="1" rx="2" />
<rect x="110" y="170" width="10" height="10" fill="#58a6ff" stroke="#30363d" stroke-width="1" rx="2" />
<rect x="110" y="184" width="10" height="10" fill="#21262d" stroke="#30363d" stroke-width="1" rx="2" />
<rect x="124" y="100" width="10" height="10" fill="#58a6ff" stroke="#30363d" stroke-width="1" rx="2" />
<rect x="124" y="114" width="10" height="10" fill="#161b22" stroke="#30363d" stroke-width="1" rx="2" />
<rect x="124" y="128" width="10" height="10" fill="#161b22" stroke="#30363d" stroke-width="1" rx="2" />
<rect x="124" y="142" width="10" height="10" fill="#58a6ff" stroke="#30363d" stroke-width="1" rx="2" />
<rect x="124" y="156" width="10" height="10" fill="#161b22" stroke="#30363d" stroke-width="1" rx="2" />
<rect x="124" y="170" width="10" height="10" fill="#21262d" stroke="#30363d" stroke-width="1" rx="2" />
<rect x="124" y="184" width="10" height="10" fill="#161b22" stroke="#30363d" stroke-width="1" rx="2" />
<rect x="138" y="100" width="10" height="10" fill="#161b22" stroke="#30363d" stroke-width="1" rx="2" />
<rect x="138" y="114" width="10" height="10" fill="#21262d" stroke="#30363d" stroke-width="1" rx="2" />
<rect x="138" y="128" width="10" height="10" fill="#161b22" stroke="#30363d" stroke-width="1" rx="2" />
<rect x="138" y="142" width="10" height="10" fill="#21262d" stroke="#30363d" stroke-width="1" rx="2" />
<rect x="138" y="156" width="10" height="10" fill="#00ffcc" stroke="#30363d" stroke-width="1" rx="2" filter="url(#neon-glow)"/>
<rect x="138" y="170" width="10" height="10" fill="#58a6ff" stroke="#30363d" stroke-width="1" rx="2" />
<rect x="138" y="184" width="10" height="10" fill="#21262d" stroke="#30363d" stroke-width="1" rx="2" />
<rect x="152" y="100" width="10" height="10" fill="#161b22" stroke="#30363d" stroke-width="1" rx="2" />
<rect x="152" y="114" width="10" height="10" fill="#161b22" stroke="#30363d" stroke-width="1" rx="2" />
<rect x="152" y="128" width="10" height="10" fill="#00ffcc" stroke="#30363d" stroke-width="1" rx="2" filter="url(#neon-glow)"/>
<rect x="152" y="142" width="10" height="10" fill="#161b22" stroke="#30363d" stroke-width="1" rx="2" />
<rect x="152" y="156" width="10" height="10" fill="#161b22" stroke="#30363d" stroke-width="1" rx="2" />
<rect x="152" y="170" width="10" height="10" fill="#58a6ff" stroke="#30363d" stroke-width="1" rx="2" />
<rect x="152" y="184" width="10" height="10" fill="#161b22" stroke="#30363d" stroke-width="1" rx="2" />
<rect x="166" y="100" width="10" height="10" fill="#161b22" stroke="#30363d" stroke-width="1" rx="2" />
<rect x="166" y="114" width="10" height="10" fill="#21262d" stroke="#30363d" stroke-width="1" rx="2" />
<rect x="166" y="128" width="10" height="10" fill="#161b22" stroke="#30363d" stroke-width="1" rx="2" />
<rect x="166" y="142" width="10" height="10" fill="#58a6ff" stroke="#30363d" stroke-width="1" rx="2" />
<rect x="166" y="156" width="10" height="10" fill="#21262d" stroke="#30363d" stroke-width="1" rx="2" />
<rect x="166" y="170" width="10" height="10" fill="#161b22" stroke="#30363d" stroke-width="1" rx="2" />
<rect x="166" y="184" width="10" height="10" fill="#21262d" stroke="#30363d" stroke-width="1" rx="2" />
<rect x="180" y="100" width="10" height="10" fill="#58a6ff" stroke="#30363d" stroke-width="1" rx="2" />
<rect x="180" y="114" width="10" height="10" fill="#161b22" stroke="#30363d" stroke-width="1" rx="2" />
<rect x="180" y="128" width="10" height="10" fill="#00ffcc" stroke="#30363d" stroke-width="1" rx="2" filter="url(#neon-glow)"/>
<rect x="180" y="142" width="10" height="10" fill="#161b22" stroke="#30363d" stroke-width="1" rx="2" />
<rect x="180" y="156" width="10" height="10" fill="#161b22" stroke="#30363d" stroke-width="1" rx="2" />
<rect x="180" y="170" width="10" height="10" fill="#58a6ff" stroke="#30363d" stroke-width="1" rx="2" />
<rect x="180" y="184" width="10" height="10" fill="#161b22" stroke="#30363d" stroke-width="1" rx="2" />
<rect x="194" y="100" width="10" height="10" fill="#00ffcc" stroke="#30363d" stroke-width="1" rx="2" filter="url(#neon-glow)"/>
<rect x="194" y="114" width="10" height="10" fill="#161b22" stroke="#30363d" stroke-width="1" rx="2" />
<rect x="194" y="128" width="10" height="10" fill="#58a6ff" stroke="#30363d" stroke-width="1" rx="2" />
<rect x="194" y="142" width="10" height="10" fill="#161b22" stroke="#30363d" stroke-width="1" rx="2" />
<rect x="194" y="156" width="10" height="10" fill="#00ffcc" stroke="#30363d" stroke-width="1" rx="2" filter="url(#neon-glow)"/>
<rect x="194" y="170" width="10" height="10" fill="#161b22" stroke="#30363d" stroke-width="1" rx="2" />
<rect x="194" y="184" width="10" height="10" fill="#58a6ff" stroke="#30363d" stroke-width="1" rx="2" />
<rect x="208" y="100" width="10" height="10" fill="#58a6ff" stroke="#30363d" stroke-width="1" rx="2" />
<rect x="208" y="114" width="10" height="10" fill="#161b22" stroke="#30363d" stroke-width="1" rx="2" />
<rect x="208" y="128" width="10" height="10" fill="#58a6ff" stroke="#30363d" stroke-width="1" rx="2" />
<rect x="208" y="142" width="10" height="10" fill="#161b22" stroke="#30363d" stroke-width="1" rx="2" />
<rect x="208" y="156" width="10" height="10" fill="#21262d" stroke="#30363d" stroke-width="1" rx="2" />
<rect x="208" y="170" width="10" height="10" fill="#21262d" stroke="#30363d" stroke-width="1" rx="2" />
<rect x="208" y="184" width="10" height="10" fill="#161b22" stroke="#30363d" stroke-width="1" rx="2" />
<rect x="222" y="100" width="10" height="10" fill="#58a6ff" stroke="#30363d" stroke-width="1" rx="2" />
<rect x="222" y="114" width="10" height="10" fill="#21262d" stroke="#30363d" stroke-width="1" rx="2" />
<rect x="222" y="128" width="10" height="10" fill="#161b22" stroke="#30363d" stroke-width="1" rx="2" />
<rect x="222" y="142" width="10" height="10" fill="#161b22" stroke="#30363d" stroke-width="1" rx="2" />
<rect x="222" y="156" width="10" height="10" fill="#161b22" stroke="#30363d" stroke-width="1" rx="2" />
<rect x="222" y="170" width="10" height="10" fill="#00ffcc" stroke="#30363d" stroke-width="1" rx="2" filter="url(#neon-glow)"/>
<rect x="222" y="184" width="10" height="10" fill="#21262d" stroke="#30363d" stroke-width="1" rx="2" />
<rect x="236" y="100" width="10" height="10" fill="#161b22" stroke="#30363d" stroke-width="1" rx="2" />
<rect x="236" y="114" width="10" height="10" fill="#58a6ff" stroke="#30363d" stroke-width="1" rx="2" />
<rect x="236" y="128" width="10" height="10" fill="#161b22" stroke="#30363d" stroke-width="1" rx="2" />
<rect x="236" y="142" width="10" height="10" fill="#161b22" stroke="#30363d" stroke-width="1" rx="2" />
<rect x="236" y="156" width="10" height="10" fill="#161b22" stroke="#30363d" stroke-width="1" rx="2" />
<rect x="236" y="170" width="10" height="10" fill="#21262d" stroke="#30363d" stroke-width="1" rx="2" />
<rect x="236" y="184" width="10" height="10" fill="#161b22" stroke="#30363d" stroke-width="1" rx="2" />
<rect x="250" y="100" width="10" height="10" fill="#161b22" stroke="#30363d" stroke-width="1" rx="2" />
<rect x="250" y="114" width="10" height="10" fill="#161b22" stroke="#30363d" stroke-width="1" rx="2" />
<rect x="250" y="128" width="10" height="10" fill="#161b22" stroke="#30363d" stroke-width="1" rx="2" />
<rect x="250" y="142" width="10" height="10" fill="#161b22" stroke="#30363d" stroke-width="1" rx="2" />
<rect x="250" y="156" width="10" height="10" fill="#161b22" stroke="#30363d" stroke-width="1" rx="2" />
<rect x="250" y="170" width="10" height="10" fill="#161b22" stroke="#30363d" stroke-width="1" rx="2" />
<rect x="250" y="184" width="10" height="10" fill="#00ffcc" stroke="#30363d" stroke-width="1" rx="2" filter="url(#neon-glow)"/>
<rect x="264" y="100" width="10" height="10" fill="#161b22" stroke="#30363d" stroke-width="1" rx="2" />
<rect x="264" y="114" width="10" height="10" fill="#161b22" stroke="#30363d" stroke-width="1" rx="2" />
<rect x="264" y="128" width="10" height="10" fill="#00ffcc" stroke="#30363d" stroke-width="1" rx="2" filter="url(#neon-glow)"/>
<rect x="264" y="142" width="10" height="10" fill="#161b22" stroke="#30363d" stroke-width="1" rx="2" />
<rect x="264" y="156" width="10" height="10" fill="#58a6ff" stroke="#30363d" stroke-width="1" rx="2" />
<rect x="264" y="170" width="10" height="10" fill="#21262d" stroke="#30363d" stroke-width="1" rx="2" />
<rect x="264" y="184" width="10" height="10" fill="#161b22" stroke="#30363d" stroke-width="1" rx="2" />
<rect x="278" y="100" width="10" height="10" fill="#161b22" stroke="#30363d" stroke-width="1" rx="2" />
<rect x="278" y="114" width="10" height="10" fill="#161b22" stroke="#30363d" stroke-width="1" rx="2" />
<rect x="278" y="128" width="10" height="10" fill="#161b22" stroke="#30363d" stroke-width="1" rx="2" />
<rect x="278" y="142" width="10" height="10" fill="#161b22" stroke="#30363d" stroke-width="1" rx="2" />
<rect x="278" y="156" width="10" height="10" fill="#161b22" stroke="#30363d" stroke-width="1" rx="2" />
<rect x="278" y="170" width="10" height="10" fill="#58a6ff" stroke="#30363d" stroke-width="1" rx="2" />
<rect x="278" y="184" width="10" height="10" fill="#161b22" stroke="#30363d" stroke-width="1" rx="2" />
<rect x="292" y="100" width="10" height="10" fill="#58a6ff" stroke="#30363d" stroke-width="1" rx="2" />
<rect x="292" y="114" width="10" height="10" fill="#161b22" stroke="#30363d" stroke-width="1" rx="2" />
<rect x="292" y="128" width="10" height="10" fill="#58a6ff" stroke="#30363d" stroke-width="1" rx="2" />
<rect x="292" y="142" width="10" height="10" fill="#161b22" stroke="#30363d" stroke-width="1" rx="2" />
<rect x="292" y="156" width="10" height="10" fill="#21262d" stroke="#30363d" stroke-width="1" rx="2" />
<rect x="292" y="170" width="10" height="10" fill="#58a6ff" stroke="#30363d" stroke-width="1" rx="2" />
<rect x="292" y="184" width="10" height="10" fill="#161b22" stroke="#30363d" stroke-width="1" rx="2" />
<rect x="306" y="100" width="10" height="10" fill="#161b22" stroke="#30363d" stroke-width="1" rx="2" />
<rect x="306" y="114" width="10" height="10" fill="#161b22" stroke="#30363d" stroke-width="1" rx="2" />
<rect x="306" y="128" width="10" height="10" fill="#58a6ff" stroke="#30363d" stroke-width="1" rx="2" />
<rect x="306" y="142" width="10" height="10" fill="#161b22" stroke="#30363d" stroke-width="1" rx="2" />
<rect x="306" y="156" width="10" height="10" fill="#21262d" stroke="#30363d" stroke-width="1" rx="2" />
<rect x="306" y="170" width="10" height="10" fill="#00ffcc" stroke="#30363d" stroke-width="1" rx="2" filter="url(#neon-glow)"/>
<rect x="306" y="184" width="10" height="10" fill="#58a6ff" stroke="#30363d" stroke-width="1" rx="2" />
<rect x="320" y="100" width="10" height="10" fill="#161b22" stroke="#30363d" stroke-width="1" rx="2" />
<rect x="320" y="114" width="10" height="10" fill="#21262d" stroke="#30363d" stroke-width="1" rx="2" />
<rect x="320" y="128" width="10" height="10" fill="#58a6ff" stroke="#30363d" stroke-width="1" rx="2" />
<rect x="320" y="142" width="10" height="10" fill="#161b22" stroke="#30363d" stroke-width="1" rx="2" />
<rect x="320" y="156" width="10" height="10" fill="#161b22" stroke="#30363d" stroke-width="1" rx="2" />
<rect x="320" y="170" width="10" height="10" fill="#21262d" stroke="#30363d" stroke-width="1" rx="2" />
<rect x="320" y="184" width="10" height="10" fill="#161b22" stroke="#30363d" stroke-width="1" rx="2" />
<rect x="334" y="100" width="10" height="10" fill="#161b22" stroke="#30363d" stroke-width="1" rx="2" />
<rect x="334" y="114" width="10" height="10" fill="#58a6ff" stroke="#30363d" stroke-width="1" rx="2" />
<rect x="334" y="128" width="10" height="10" fill="#161b22" stroke="#30363d" stroke-width="1" rx="2" />
<rect x="334" y="142" width="10" height="10" fill="#161b22" stroke="#30363d" stroke-width="1" rx="2" />
<rect x="334" y="156" width="10" height="10" fill="#21262d" stroke="#30363d" stroke-width="1" rx="2" />
<rect x="334" y="170" width="10" height="10" fill="#161b22" stroke="#30363d" stroke-width="1" rx="2" />
<rect x="334" y="184" width="10" height="10" fill="#00ffcc" stroke="#30363d" stroke-width="1" rx="2" filter="url(#neon-glow)"/>
<rect x="348" y="100" width="10" height="10" fill="#58a6ff" stroke="#30363d" stroke-width="1" rx="2" />
<rect x="348" y="114" width="10" height="10" fill="#58a6ff" stroke="#30363d" stroke-width="1" rx="2" />
<rect x="348" y="128" width="10" height="10" fill="#161b22" stroke="#30363d" stroke-width="1" rx="2" />
<rect x="348" y="142" width="10" height="10" fill="#58a6ff" stroke="#30363d" stroke-width="1" rx="2" />
<rect x="348" y="156" width="10" height="10" fill="#161b22" stroke="#30363d" stroke-width="1" rx="2" />
<rect x="348" y="170" width="10" height="10" fill="#161b22" stroke="#30363d" stroke-width="1" rx="2" />
<rect x="348" y="184" width="10" height="10" fill="#161b22" stroke="#30363d" stroke-width="1" rx="2" />
<rect x="362" y="100" width="10" height="10" fill="#161b22" stroke="#30363d" stroke-width="1" rx="2" />
<rect x="362" y="114" width="10" height="10" fill="#58a6ff" stroke="#30363d" stroke-width="1" rx="2" />
<rect x="362" y="128" width="10" height="10" fill="#161b22" stroke="#30363d" stroke-width="1" rx="2" />
<rect x="362" y="142" width="10" height="10" fill="#161b22" stroke="#30363d" stroke-width="1" rx="2" />
<rect x="362" y="156" width="10" height="10" fill="#161b22" stroke="#30363d" stroke-width="1" rx="2" />
<rect x="362" y="170" width="10" height="10" fill="#58a6ff" stroke="#30363d" stroke-width="1" rx="2" />
<rect x="362" y="184" width="10" height="10" fill="#161b22" stroke="#30363d" stroke-width="1" rx="2" />
<rect x="376" y="100" width="10" height="10" fill="#58a6ff" stroke="#30363d" stroke-width="1" rx="2" />
<rect x="376" y="114" width="10" height="10" fill="#161b22" stroke="#30363d" stroke-width="1" rx="2" />
<rect x="376" y="128" width="10" height="10" fill="#21262d" stroke="#30363d" stroke-width="1" rx="2" />
<rect x="376" y="142" width="10" height="10" fill="#58a6ff" stroke="#30363d" stroke-width="1" rx="2" />
<rect x="376" y="156" width="10" height="10" fill="#161b22" stroke="#30363d" stroke-width="1" rx="2" />
<rect x="376" y="170" width="10" height="10" fill="#161b22" stroke="#30363d" stroke-width="1" rx="2" />
<rect x="376" y="184" width="10" height="10" fill="#00ffcc" stroke="#30363d" stroke-width="1" rx="2" filter="url(#neon-glow)"/>
<rect x="390" y="100" width="10" height="10" fill="#161b22" stroke="#30363d" stroke-width="1" rx="2" />
<rect x="390" y="114" width="10" height="10" fill="#161b22" stroke="#30363d" stroke-width="1" rx="2" />
<rect x="390" y="128" width="10" height="10" fill="#161b22" stroke="#30363d" stroke-width="1" rx="2" />
<rect x="390" y="142" width="10" height="10" fill="#00ffcc" stroke="#30363d" stroke-width="1" rx="2" filter="url(#neon-glow)"/>
<rect x="390" y="156" width="10" height="10" fill="#58a6ff" stroke="#30363d" stroke-width="1" rx="2" />
<rect x="390" y="170" width="10" height="10" fill="#161b22" stroke="#30363d" stroke-width="1" rx="2" />
<rect x="390" y="184" width="10" height="10" fill="#58a6ff" stroke="#30363d" stroke-width="1" rx="2" />
<rect x="404" y="100" width="10" height="10" fill="#161b22" stroke="#30363d" stroke-width="1" rx="2" />
<rect x="404" y="114" width="10" height="10" fill="#21262d" stroke="#30363d" stroke-width="1" rx="2" />
<rect x="404" y="128" width="10" height="10" fill="#161b22" stroke="#30363d" stroke-width="1" rx="2" />
<rect x="404" y="142" width="10" height="10" fill="#21262d" stroke="#30363d" stroke-width="1" rx="2" />
<rect x="404" y="156" width="10" height="10" fill="#21262d" stroke="#30363d" stroke-width="1" rx="2" />
<rect x="404" y="170" width="10" height="10" fill="#21262d" stroke="#30363d" stroke-width="1" rx="2" />
<rect x="404" y="184" width="10" height="10" fill="#161b22" stroke="#30363d" stroke-width="1" rx="2" />
<rect x="418" y="100" width="10" height="10" fill="#161b22" stroke="#30363d" stroke-width="1" rx="2" />
<rect x="418" y="114" width="10" height="10" fill="#161b22" stroke="#30363d" stroke-width="1" rx="2" />
<rect x="418" y="128" width="10" height="10" fill="#161b22" stroke="#30363d" stroke-width="1" rx="2" />
<rect x="418" y="142" width="10" height="10" fill="#58a6ff" stroke="#30363d" stroke-width="1" rx="2" />
<rect x="418" y="156" width="10" height="10" fill="#161b22" stroke="#30363d" stroke-width="1" rx="2" />
<rect x="418" y="170" width="10" height="10" fill="#161b22" stroke="#30363d" stroke-width="1" rx="2" />
<rect x="418" y="184" width="10" height="10" fill="#58a6ff" stroke="#30363d" stroke-width="1" rx="2" />
<rect x="432" y="100" width="10" height="10" fill="#161b22" stroke="#30363d" stroke-width="1" rx="2" />
<rect x="432" y="114" width="10" height="10" fill="#161b22" stroke="#30363d" stroke-width="1" rx="2" />
<rect x="432" y="128" width="10" height="10" fill="#161b22" stroke="#30363d" stroke-width="1" rx="2" />
<rect x="432" y="142" width="10" height="10" fill="#161b22" stroke="#30363d" stroke-width="1" rx="2" />
<rect x="432" y="156" width="10" height="10" fill="#58a6ff" stroke="#30363d" stroke-width="1" rx="2" />
<rect x="432" y="170" width="10" height="10" fill="#161b22" stroke="#30363d" stroke-width="1" rx="2" />
<rect x="432" y="184" width="10" height="10" fill="#161b22" stroke="#30363d" stroke-width="1" rx="2" />
<rect x="446" y="100" width="10" height="10" fill="#21262d" stroke="#30363d" stroke-width="1" rx="2" />
<rect x="446" y="114" width="10" height="10" fill="#161b22" stroke="#30363d" stroke-width="1" rx="2" />
<rect x="446" y="128" width="10" height="10" fill="#161b22" stroke="#30363d" stroke-width="1" rx="2" />
<rect x="446" y="142" width="10" height="10" fill="#161b22" stroke="#30363d" stroke-width="1" rx="2" />
<rect x="446" y="156" width="10" height="10" fill="#21262d" stroke="#30363d" stroke-width="1" rx="2" />
<rect x="446" y="170" width="10" height="10" fill="#21262d" stroke="#30363d" stroke-width="1" rx="2" />
<rect x="446" y="184" width="10" height="10" fill="#161b22" stroke="#30363d" stroke-width="1" rx="2" />
<rect x="460" y="100" width="10" height="10" fill="#58a6ff" stroke="#30363d" stroke-width="1" rx="2" />
<rect x="460" y="114" width="10" height="10" fill="#21262d" stroke="#30363d" stroke-width="1" rx="2" />
<rect x="460" y="128" width="10" height="10" fill="#21262d" stroke="#30363d" stroke-width="1" rx="2" />
<rect x="460" y="142" width="10" height="10" fill="#21262d" stroke="#30363d" stroke-width="1" rx="2" />
<rect x="460" y="156" width="10" height="10" fill="#161b22" stroke="#30363d" stroke-width="1" rx="2" />
<rect x="460" y="170" width="10" height="10" fill="#161b22" stroke="#30363d" stroke-width="1" rx="2" />
<rect x="460" y="184" width="10" height="10" fill="#161b22" stroke="#30363d" stroke-width="1" rx="2" />
<rect x="474" y="100" width="10" height="10" fill="#21262d" stroke="#30363d" stroke-width="1" rx="2" />
<rect x="474" y="114" width="10" height="10" fill="#161b22" stroke="#30363d" stroke-width="1" rx="2" />
<rect x="474" y="128" width="10" height="10" fill="#21262d" stroke="#30363d" stroke-width="1" rx="2" />
<rect x="474" y="142" width="10" height="10" fill="#161b22" stroke="#30363d" stroke-width="1" rx="2" />
<rect x="474" y="156" width="10" height="10" fill="#161b22" stroke="#30363d" stroke-width="1" rx="2" />
<rect x="474" y="170" width="10" height="10" fill="#161b22" stroke="#30363d" stroke-width="1" rx="2" />
<rect x="474" y="184" width="10" height="10" fill="#161b22" stroke="#30363d" stroke-width="1" rx="2" />
<rect x="488" y="100" width="10" height="10" fill="#58a6ff" stroke="#30363d" stroke-width="1" rx="2" />
<rect x="488" y="114" width="10" height="10" fill="#58a6ff" stroke="#30363d" stroke-width="1" rx="2" />
<rect x="488" y="128" width="10" height="10" fill="#58a6ff" stroke="#30363d" stroke-width="1" rx="2" />
<rect x="488" y="142" width="10" height="10" fill="#161b22" stroke="#30363d" stroke-width="1" rx="2" />
<rect x="488" y="156" width="10" height="10" fill="#161b22" stroke="#30363d" stroke-width="1" rx="2" />
<rect x="488" y="170" width="10" height="10" fill="#58a6ff" stroke="#30363d" stroke-width="1" rx="2" />
<rect x="488" y="184" width="10" height="10" fill="#161b22" stroke="#30363d" stroke-width="1" rx="2" />
<rect x="502" y="100" width="10" height="10" fill="#58a6ff" stroke="#30363d" stroke-width="1" rx="2" />
<rect x="502" y="114" width="10" height="10" fill="#21262d" stroke="#30363d" stroke-width="1" rx="2" />
<rect x="502" y="128" width="10" height="10" fill="#161b22" stroke="#30363d" stroke-width="1" rx="2" />
<rect x="502" y="142" width="10" height="10" fill="#161b22" stroke="#30363d" stroke-width="1" rx="2" />
<rect x="502" y="156" width="10" height="10" fill="#161b22" stroke="#30363d" stroke-width="1" rx="2" />
<rect x="502" y="170" width="10" height="10" fill="#161b22" stroke="#30363d" stroke-width="1" rx="2" />
<rect x="502" y="184" width="10" height="10" fill="#21262d" stroke="#30363d" stroke-width="1" rx="2" />
<rect x="516" y="100" width="10" height="10" fill="#161b22" stroke="#30363d" stroke-width="1" rx="2" />
<rect x="516" y="114" width="10" height="10" fill="#161b22" stroke="#30363d" stroke-width="1" rx="2" />
<rect x="516" y="128" width="10" height="10" fill="#21262d" stroke="#30363d" stroke-width="1" rx="2" />
<rect x="516" y="142" width="10" height="10" fill="#21262d" stroke="#30363d" stroke-width="1" rx="2" />
<rect x="516" y="156" width="10" height="10" fill="#161b22" stroke="#30363d" stroke-width="1" rx="2" />
<rect x="516" y="170" width="10" height="10" fill="#161b22" stroke="#30363d" stroke-width="1" rx="2" />
<rect x="516" y="184" width="10" height="10" fill="#161b22" stroke="#30363d" stroke-width="1" rx="2" />
<rect x="530" y="100" width="10" height="10" fill="#161b22" stroke="#30363d" stroke-width="1" rx="2" />
<rect x="530" y="114" width="10" height="10" fill="#161b22" stroke="#30363d" stroke-width="1" rx="2" />
<rect x="530" y="128" width="10" height="10" fill="#21262d" stroke="#30363d" stroke-width="1" rx="2" />
<rect x="530" y="142" width="10" height="10" fill="#161b22" stroke="#30363d" stroke-width="1" rx="2" />
<rect x="530" y="156" width="10" height="10" fill="#161b22" stroke="#30363d" stroke-width="1" rx="2" />
<rect x="530" y="170" width="10" height="10" fill="#21262d" stroke="#30363d" stroke-width="1" rx="2" />
<rect x="530" y="184" width="10" height="10" fill="#161b22" stroke="#30363d" stroke-width="1" rx="2" />
<rect x="544" y="100" width="10" height="10" fill="#58a6ff" stroke="#30363d" stroke-width="1" rx="2" />
<rect x="544" y="114" width="10" height="10" fill="#161b22" stroke="#30363d" stroke-width="1" rx="2" />
<rect x="544" y="128" width="10" height="10" fill="#161b22" stroke="#30363d" stroke-width="1" rx="2" />
<rect x="544" y="142" width="10" height="10" fill="#21262d" stroke="#30363d" stroke-width="1" rx="2" />
<rect x="544" y="156" width="10" height="10" fill="#58a6ff" stroke="#30363d" stroke-width="1" rx="2" />
<rect x="544" y="170" width="10" height="10" fill="#21262d" stroke="#30363d" stroke-width="1" rx="2" />
<rect x="544" y="184" width="10" height="10" fill="#161b22" stroke="#30363d" stroke-width="1" rx="2" />
<rect x="558" y="100" width="10" height="10" fill="#161b22" stroke="#30363d" stroke-width="1" rx="2" />
<rect x="558" y="114" width="10" height="10" fill="#21262d" stroke="#30363d" stroke-width="1" rx="2" />
<rect x="558" y="128" width="10" height="10" fill="#161b22" stroke="#30363d" stroke-width="1" rx="2" />
<rect x="558" y="142" width="10" height="10" fill="#21262d" stroke="#30363d" stroke-width="1" rx="2" />
<rect x="558" y="156" width="10" height="10" fill="#21262d" stroke="#30363d" stroke-width="1" rx="2" />
<rect x="558" y="170" width="10" height="10" fill="#161b22" stroke="#30363d" stroke-width="1" rx="2" />
<rect x="558" y="184" width="10" height="10" fill="#161b22" stroke="#30363d" stroke-width="1" rx="2" />
<rect x="572" y="100" width="10" height="10" fill="#161b22" stroke="#30363d" stroke-width="1" rx="2" />
<rect x="572" y="114" width="10" height="10" fill="#161b22" stroke="#30363d" stroke-width="1" rx="2" />
<rect x="572" y="128" width="10" height="10" fill="#21262d" stroke="#30363d" stroke-width="1" rx="2" />
<rect x="572" y="142" width="10" height="10" fill="#161b22" stroke="#30363d" stroke-width="1" rx="2" />
<rect x="572" y="156" width="10" height="10" fill="#21262d" stroke="#30363d" stroke-width="1" rx="2" />
<rect x="572" y="170" width="10" height="10" fill="#161b22" stroke="#30363d" stroke-width="1" rx="2" />
<rect x="572" y="184" width="10" height="10" fill="#161b22" stroke="#30363d" stroke-width="1" rx="2" />
<rect x="586" y="100" width="10" height="10" fill="#21262d" stroke="#30363d" stroke-width="1" rx="2" />
<rect x="586" y="114" width="10" height="10" fill="#161b22" stroke="#30363d" stroke-width="1" rx="2" />
<rect x="586" y="128" width="10" height="10" fill="#161b22" stroke="#30363d" stroke-width="1" rx="2" />
<rect x="586" y="142" width="10" height="10" fill="#161b22" stroke="#30363d" stroke-width="1" rx="2" />
<rect x="586" y="156" width="10" height="10" fill="#58a6ff" stroke="#30363d" stroke-width="1" rx="2" />
<rect x="586" y="170" width="10" height="10" fill="#161b22" stroke="#30363d" stroke-width="1" rx="2" />
<rect x="586" y="184" width="10" height="10" fill="#161b22" stroke="#30363d" stroke-width="1" rx="2" />
<rect x="600" y="100" width="10" height="10" fill="#161b22" stroke="#30363d" stroke-width="1" rx="2" />
<rect x="600" y="114" width="10" height="10" fill="#161b22" stroke="#30363d" stroke-width="1" rx="2" />
<rect x="600" y="128" width="10" height="10" fill="#58a6ff" stroke="#30363d" stroke-width="1" rx="2" />
<rect x="600" y="142" width="10" height="10" fill="#21262d" stroke="#30363d" stroke-width="1" rx="2" />
<rect x="600" y="156" width="10" height="10" fill="#58a6ff" stroke="#30363d" stroke-width="1" rx="2" />
<rect x="600" y="170" width="10" height="10" fill="#161b22" stroke="#30363d" stroke-width="1" rx="2" />
<rect x="600" y="184" width="10" height="10" fill="#161b22" stroke="#30363d" stroke-width="1" rx="2" />
<rect x="614" y="100" width="10" height="10" fill="#58a6ff" stroke="#30363d" stroke-width="1" rx="2" />
<rect x="614" y="114" width="10" height="10" fill="#161b22" stroke="#30363d" stroke-width="1" rx="2" />
<rect x="614" y="128" width="10" height="10" fill="#00ffcc" stroke="#30363d" stroke-width="1" rx="2" filter="url(#neon-glow)"/>
<rect x="614" y="142" width="10" height="10" fill="#21262d" stroke="#30363d" stroke-width="1" rx="2" />
<rect x="614" y="156" width="10" height="10" fill="#161b22" stroke="#30363d" stroke-width="1" rx="2" />
<rect x="614" y="170" width="10" height="10" fill="#21262d" stroke="#30363d" stroke-width="1" rx="2" />
<rect x="614" y="184" width="10" height="10" fill="#161b22" stroke="#30363d" stroke-width="1" rx="2" />
<rect x="628" y="100" width="10" height="10" fill="#21262d" stroke="#30363d" stroke-width="1" rx="2" />
<rect x="628" y="114" width="10" height="10" fill="#21262d" stroke="#30363d" stroke-width="1" rx="2" />
<rect x="628" y="128" width="10" height="10" fill="#161b22" stroke="#30363d" stroke-width="1" rx="2" />
<rect x="628" y="142" width="10" height="10" fill="#58a6ff" stroke="#30363d" stroke-width="1" rx="2" />
<rect x="628" y="156" width="10" height="10" fill="#161b22" stroke="#30363d" stroke-width="1" rx="2" />
<rect x="628" y="170" width="10" height="10" fill="#161b22" stroke="#30363d" stroke-width="1" rx="2" />
<rect x="628" y="184" width="10" height="10" fill="#161b22" stroke="#30363d" stroke-width="1" rx="2" />
<rect x="642" y="100" width="10" height="10" fill="#161b22" stroke="#30363d" stroke-width="1" rx="2" />
<rect x="642" y="114" width="10" height="10" fill="#161b22" stroke="#30363d" stroke-width="1" rx="2" />
<rect x="642" y="128" width="10" height="10" fill="#58a6ff" stroke="#30363d" stroke-width="1" rx="2" />
<rect x="642" y="142" width="10" height="10" fill="#21262d" stroke="#30363d" stroke-width="1" rx="2" />
<rect x="642" y="156" width="10" height="10" fill="#161b22" stroke="#30363d" stroke-width="1" rx="2" />
<rect x="642" y="170" width="10" height="10" fill="#58a6ff" stroke="#30363d" stroke-width="1" rx="2" />
<rect x="642" y="184" width="10" height="10" fill="#21262d" stroke="#30363d" stroke-width="1" rx="2" />
<rect x="656" y="100" width="10" height="10" fill="#21262d" stroke="#30363d" stroke-width="1" rx="2" />
<rect x="656" y="114" width="10" height="10" fill="#58a6ff" stroke="#30363d" stroke-width="1" rx="2" />
<rect x="656" y="128" width="10" height="10" fill="#21262d" stroke="#30363d" stroke-width="1" rx="2" />
<rect x="656" y="142" width="10" height="10" fill="#58a6ff" stroke="#30363d" stroke-width="1" rx="2" />
<rect x="656" y="156" width="10" height="10" fill="#161b22" stroke="#30363d" stroke-width="1" rx="2" />
<rect x="656" y="170" width="10" height="10" fill="#58a6ff" stroke="#30363d" stroke-width="1" rx="2" />
<rect x="656" y="184" width="10" height="10" fill="#00ffcc" stroke="#30363d" stroke-width="1" rx="2" filter="url(#neon-glow)"/>
<rect x="670" y="100" width="10" height="10" fill="#21262d" stroke="#30363d" stroke-width="1" rx="2" />
<rect x="670" y="114" width="10" height="10" fill="#161b22" stroke="#30363d" stroke-width="1" rx="2" />
<rect x="670" y="128" width="10" height="10" fill="#161b22" stroke="#30363d" stroke-width="1" rx="2" />
<rect x="670" y="142" width="10" height="10" fill="#00ffcc" stroke="#30363d" stroke-width="1" rx="2" filter="url(#neon-glow)"/>
<rect x="670" y="156" width="10" height="10" fill="#161b22" stroke="#30363d" stroke-width="1" rx="2" />
<rect x="670" y="170" width="10" height="10" fill="#161b22" stroke="#30363d" stroke-width="1" rx="2" />
<rect x="670" y="184" width="10" height="10" fill="#161b22" stroke="#30363d" stroke-width="1" rx="2" />
<rect x="684" y="100" width="10" height="10" fill="#58a6ff" stroke="#30363d" stroke-width="1" rx="2" />
<rect x="684" y="114" width="10" height="10" fill="#161b22" stroke="#30363d" stroke-width="1" rx="2" />
<rect x="684" y="128" width="10" height="10" fill="#161b22" stroke="#30363d" stroke-width="1" rx="2" />
<rect x="684" y="142" width="10" height="10" fill="#21262d" stroke="#30363d" stroke-width="1" rx="2" />
<rect x="684" y="156" width="10" height="10" fill="#21262d" stroke="#30363d" stroke-width="1" rx="2" />
<rect x="684" y="170" width="10" height="10" fill="#58a6ff" stroke="#30363d" stroke-width="1" rx="2" />
<rect x="684" y="184" width="10" height="10" fill="#58a6ff" stroke="#30363d" stroke-width="1" rx="2" />
<rect x="698" y="100" width="10" height="10" fill="#161b22" stroke="#30363d" stroke-width="1" rx="2" />
<rect x="698" y="114" width="10" height="10" fill="#161b22" stroke="#30363d" stroke-width="1" rx="2" />
<rect x="698" y="128" width="10" height="10" fill="#161b22" stroke="#30363d" stroke-width="1" rx="2" />
<rect x="698" y="142" width="10" height="10" fill="#161b22" stroke="#30363d" stroke-width="1" rx="2" />
<rect x="698" y="156" width="10" height="10" fill="#58a6ff" stroke="#30363d" stroke-width="1" rx="2" />
<rect x="698" y="170" width="10" height="10" fill="#161b22" stroke="#30363d" stroke-width="1" rx="2" />
<rect x="698" y="184" width="10" height="10" fill="#161b22" stroke="#30363d" stroke-width="1" rx="2" />
<rect x="712" y="100" width="10" height="10" fill="#161b22" stroke="#30363d" stroke-width="1" rx="2" />
<rect x="712" y="114" width="10" height="10" fill="#161b22" stroke="#30363d" stroke-width="1" rx="2" />
<rect x="712" y="128" width="10" height="10" fill="#161b22" stroke="#30363d" stroke-width="1" rx="2" />
<rect x="712" y="142" width="10" height="10" fill="#21262d" stroke="#30363d" stroke-width="1" rx="2" />
<rect x="712" y="156" width="10" height="10" fill="#161b22" stroke="#30363d" stroke-width="1" rx="2" />
<rect x="712" y="170" width="10" height="10" fill="#161b22" stroke="#30363d" stroke-width="1" rx="2" />
<rect x="712" y="184" width="10" height="10" fill="#161b22" stroke="#30363d" stroke-width="1" rx="2" />
<rect x="726" y="100" width="10" height="10" fill="#00ffcc" stroke="#30363d" stroke-width="1" rx="2" filter="url(#neon-glow)"/>
<rect x="726" y="114" width="10" height="10" fill="#58a6ff" stroke="#30363d" stroke-width="1" rx="2" />
<rect x="726" y="128" width="10" height="10" fill="#21262d" stroke="#30363d" stroke-width="1" rx="2" />
<rect x="726" y="142" width="10" height="10" fill="#161b22" stroke="#30363d" stroke-width="1" rx="2" />
<rect x="726" y="156" width="10" height="10" fill="#161b22" stroke="#30363d" stroke-width="1" rx="2" />
<rect x="726" y="170" width="10" height="10" fill="#161b22" stroke="#30363d" stroke-width="1" rx="2" />
<rect x="726" y="184" width="10" height="10" fill="#161b22" stroke="#30363d" stroke-width="1" rx="2" />
<rect x="740" y="100" width="10" height="10" fill="#161b22" stroke="#30363d" stroke-width="1" rx="2" />
<rect x="740" y="114" width="10" height="10" fill="#161b22" stroke="#30363d" stroke-width="1" rx="2" />
<rect x="740" y="128" width="10" height="10" fill="#58a6ff" stroke="#30363d" stroke-width="1" rx="2" />
<rect x="740" y="142" width="10" height="10" fill="#161b22" stroke="#30363d" stroke-width="1" rx="2" />
<rect x="740" y="156" width="10" height="10" fill="#21262d" stroke="#30363d" stroke-width="1" rx="2" />
<rect x="740" y="170" width="10" height="10" fill="#161b22" stroke="#30363d" stroke-width="1" rx="2" />
<rect x="740" y="184" width="10" height="10" fill="#161b22" stroke="#30363d" stroke-width="1" rx="2" />
<rect x="754" y="100" width="10" height="10" fill="#161b22" stroke="#30363d" stroke-width="1" rx="2" />
<rect x="754" y="114" width="10" height="10" fill="#161b22" stroke="#30363d" stroke-width="1" rx="2" />
<rect x="754" y="128" width="10" height="10" fill="#161b22" stroke="#30363d" stroke-width="1" rx="2" />
<rect x="754" y="142" width="10" height="10" fill="#161b22" stroke="#30363d" stroke-width="1" rx="2" />
<rect x="754" y="156" width="10" height="10" fill="#161b22" stroke="#30363d" stroke-width="1" rx="2" />
<rect x="754" y="170" width="10" height="10" fill="#21262d" stroke="#30363d" stroke-width="1" rx="2" />
<rect x="754" y="184" width="10" height="10" fill="#161b22" stroke="#30363d" stroke-width="1" rx="2" />

        
    </svg>
    